<svg width="17" height="17" viewBox="0 0 17 17" fill="none" xmlns="http://www.w3.org/2000/svg">
<path fill-rule="evenodd" clip-rule="evenodd" d="M3.94815 8.50006C3.94815 7.98043 4.0344 7.48218 4.18853 7.01493L1.49228 4.95605C0.966776 6.02293 0.670776 7.22518 0.670776 8.50006C0.670776 9.77393 0.966526 10.9753 1.49115 12.0416L4.1859 9.97868C4.03328 9.51356 3.94815 9.01718 3.94815 8.50006Z" fill="#FBBC05"/>
<path fill-rule="evenodd" clip-rule="evenodd" d="M8.68212 3.77275C9.811 3.77275 10.8306 4.17275 11.6317 4.82725L13.9622 2.5C12.5421 1.26362 10.7214 0.5 8.68212 0.5C5.51612 0.5 2.79512 2.3105 1.49225 4.956L4.18837 7.01487C4.80962 5.12912 6.5805 3.77275 8.68212 3.77275Z" fill="#EA4335"/>
<path fill-rule="evenodd" clip-rule="evenodd" d="M8.68212 13.2272C6.58062 13.2272 4.80975 11.8709 4.1885 9.98511L1.49225 12.0436C2.79512 14.6895 5.51612 16.5 8.68212 16.5C10.6361 16.5 12.5017 15.8061 13.9019 14.5061L11.3426 12.5276C10.6205 12.9825 9.71112 13.2272 8.68212 13.2272Z" fill="#34A853"/>
<path fill-rule="evenodd" clip-rule="evenodd" d="M16.3293 8.50003C16.3293 8.02728 16.2564 7.51816 16.1471 7.04553H8.68213V10.1364H12.9791C12.7643 11.1903 12.1795 12.0004 11.3426 12.5277L13.9019 14.5062C15.3726 13.1412 16.3293 11.1077 16.3293 8.50003Z" fill="#4285F4"/>
</svg>
